<?xml version="1.0" encoding="UTF-8" standalone="no"?>
<!-- Created with Inkscape (http://www.inkscape.org/) -->

<svg
   xmlns:dc="http://purl.org/dc/elements/1.1/"
   xmlns:cc="http://creativecommons.org/ns#"
   xmlns:rdf="http://www.w3.org/1999/02/22-rdf-syntax-ns#"
   xmlns:svg="http://www.w3.org/2000/svg"
   xmlns="http://www.w3.org/2000/svg"
   xmlns:sodipodi="http://sodipodi.sourceforge.net/DTD/sodipodi-0.dtd"
   xmlns:inkscape="http://www.inkscape.org/namespaces/inkscape"
   width="1000"
   height="1000"
   id="svg2"
   version="1.1"
   inkscape:version="0.48.5 r10040"
   sodipodi:docname="icon.svg"
   inkscape:export-filename="/home/jacquarg/Dropbox/MesInfos_HB/logomesinfos_carre.png"
   inkscape:export-xdpi="45"
   inkscape:export-ydpi="45">
  <defs
     id="defs4">
    <clipPath
       id="clipPath3013"
       clipPathUnits="userSpaceOnUse">
      <path
         id="path3015"
         d="m 0,595.28 841.89,0 L 841.89,0 0,0 0,595.28 z"
         inkscape:connector-curvature="0" />
    </clipPath>
  </defs>
  <sodipodi:namedview
     id="base"
     pagecolor="#ffffff"
     bordercolor="#666666"
     borderopacity="1.0"
     inkscape:pageopacity="0.0"
     inkscape:pageshadow="2"
     inkscape:zoom="0.35"
     inkscape:cx="-409.90693"
     inkscape:cy="720.44211"
     inkscape:document-units="px"
     inkscape:current-layer="layer1"
     showgrid="false"
     inkscape:window-width="1920"
     inkscape:window-height="1054"
     inkscape:window-x="0"
     inkscape:window-y="0"
     inkscape:window-maximized="1"
     fit-margin-top="0"
     fit-margin-left="0"
     fit-margin-right="0"
     fit-margin-bottom="0" />
  <metadata
     id="metadata7">
    <rdf:RDF>
      <cc:Work
         rdf:about="">
        <dc:format>image/svg+xml</dc:format>
        <dc:type
           rdf:resource="http://purl.org/dc/dcmitype/StillImage" />
        <dc:title />
      </cc:Work>
    </rdf:RDF>
  </metadata>
  <g
     inkscape:label="Calque 1"
     inkscape:groupmode="layer"
     id="layer1"
     transform="translate(115.37362,158.25757)">
    <g
       id="g3021"
       transform="matrix(0.63907495,0,0,-0.63907495,618.24566,196.67505)">
      <path
         inkscape:connector-curvature="0"
         d="m 162.19738,139.42857 c -7.173,0 -12.98633,-5.81333 -12.98633,-12.98466 0,-3.48031 1.4132,-6.61108 3.63751,-8.9441 l -256.71471,-372.06815 c -4.97712,3.12073 -10.44257,5.50561 -16.26929,7.04089 l 61.600226,285.048821 c 0.239156,-0.02007 0.443191,-0.143828 0.690708,-0.143828 7.173007,0 12.982993,5.81333 12.982993,12.986341 0,7.173006 -5.809986,12.984661 -12.982993,12.984661 -7.173005,0 -12.986335,-5.811655 -12.986335,-12.984661 0,-5.075797 2.988618,-9.363881 7.234889,-11.491198 L -125.19617,-246.4337 c -3.23279,0.55191 -6.53917,0.89977 -9.92581,0.89977 -1.67744,0 -3.32645,-0.11201 -4.97378,-0.25421 l -22.24485,171.488208 c 5.07412,1.76942 8.7685,6.455539 8.7685,12.135075 0,7.173007 -5.81167,12.986337 -12.98467,12.986337 -7.17301,0 -12.98466,-5.81333 -12.98466,-12.986337 0,-6.825143 5.30993,-12.258834 12.00295,-12.790663 l 22.25154,-171.51831 c -18.54713,-3.22443 -34.0906,-15.10362 -42.35402,-31.34448 l -227.13294,102.86048 c 0.20403,0.90979 0.55691,1.76941 0.55691,2.75113 0,7.173 -5.81333,12.98633 -12.98634,12.98633 -7.173,0 -12.98466,-5.81333 -12.98466,-12.98633 0,-7.17302 5.81166,-12.98467 12.98466,-12.98467 4.30314,0 7.93061,2.23101 10.29374,5.45376 l 227.09448,-102.83707 c -2.71266,-6.77329 -4.24794,-14.15201 -4.24794,-21.89698 0,-8.10454 1.63897,-15.81942 4.59581,-22.84024 l -59.91276,-28.3843 c -2.36981,3.11907 -5.94377,5.26812 -10.17165,5.26812 -7.173,0 -12.98466,-5.80998 -12.98466,-12.98466 0,-7.173 5.81166,-12.98633 12.98466,-12.98633 7.17301,0 12.98634,5.81333 12.98634,12.98633 0,1.05196 -0.36459,1.99353 -0.59873,2.96688 l 59.96293,28.40437 c 5.54239,-10.44593 14.13528,-19.02043 24.59961,-24.55614 l -67.80657,-143.73775 c -0.97167,0.23581 -1.90488,0.59204 -2.94847,0.59204 -7.17301,0 -12.98299,-5.81166 -12.98299,-12.98467 0,-7.17301 5.80998,-12.98299 12.98299,-12.98299 7.173,0 12.98633,5.80998 12.98633,12.98299 0,4.23624 -2.15909,7.81689 -5.28986,10.18169 l 67.73465,143.71769 c 7.01413,-2.94681 14.72064,-4.58411 22.80345,-4.58411 26.81389,0 49.413302,17.92667 56.556203,42.43597 L 18.3158,-344.61641 c -0.01005,-0.16391 -0.09199,-0.2977 -0.09199,-0.45156 0,-7.173 5.81333,-12.98299 12.986336,-12.98299 7.173007,0 12.982992,5.80999 12.982992,12.98299 0,7.17301 -5.809985,12.98801 -12.982992,12.98801 -5.167776,0 -9.547842,-3.07056 -11.640039,-7.45063 l -96.878234,23.64801 c 0.727501,3.69438 1.125536,7.5008 1.125536,11.41092 0,5.66616 -0.844571,11.13162 -2.338037,16.30943 l 161.604205,54.49913 c 2.261111,-3.8265 6.24816,-6.50906 11.00451,-6.50906 7.173023,0 12.986353,5.81333 12.986353,12.98634 0,7.17301 -5.81333,12.98467 -12.986353,12.98467 -7.172997,0 -12.984655,-5.81166 -12.984655,-12.98467 0,-0.53183 0.24083,-0.99341 0.301037,-1.5035 l -161.612575,-54.49914 c -3.97534,10.25361 -10.728566,19.09402 -19.356584,25.64322 l 256.6913,372.03637 c 1.56036,-0.66563 3.26957,-1.03189 5.07077,-1.03189 7.17301,0 12.98466,5.81166 12.98466,12.98467 0,7.17133 -5.81165,12.98466 -12.98466,12.98466"
         style="fill:#176a3c;fill-opacity:1;fill-rule:nonzero;stroke:none"
         id="path3023" />
    </g>
    <text
       xml:space="preserve"
       style="font-size:324.75424194px;font-style:normal;font-variant:normal;font-weight:normal;font-stretch:normal;line-height:125%;letter-spacing:0px;word-spacing:0px;fill:#47a63e;fill-opacity:1;stroke:none;font-family:Monospace;-inkscape-font-specification:Monospace"
       x="219.59248"
       y="437.23947"
       id="text3014"
       sodipodi:linespacing="125%"
       transform="scale(0.99593232,1.0040843)"><tspan
         sodipodi:role="line"
         id="tspan3016"
         x="219.59248"
         y="437.23947"
         style="font-style:normal;font-variant:normal;font-weight:normal;font-stretch:normal;fill:#47a63e;fill-opacity:1;font-family:Monospace;-inkscape-font-specification:Monospace">{ }</tspan></text>
    <path
       id="path3019"
       style="fill:#47a63e;fill-opacity:1;fill-rule:nonzero;stroke:none"
       d="m 509.40819,669.57143 c -181.77078,0 -329.14446,-147.3806 -329.14446,-329.13757 0,-181.8122 147.37369,-329.151355 329.14446,-329.151355 181.7846,0 329.13755,147.339155 329.13755,329.151355 0,181.75697 -147.35295,329.13757 -329.13755,329.13757 m -627.80733,-441.0714 -0.0415,0 0.0415,0 z m 0.29696,-169.002205 0.0415,0 -0.0415,0 z m 627.51038,-97.98441 -629.78925,0 0,98.02585 c 1.85071,0 2.61724,-0.0415 2.87275,-0.0415 46.392215,0.37981 84.545985,38.10543 84.545985,84.504555 0,46.47509 -38.42999,84.07641 -84.753155,84.49765 l -2.66558,0 0,492.62214 c 0,0 616.13676,0.8494 629.78925,0.8494 210.00802,0 380.22562,-170.23833 380.22562,-380.23253 0,-209.9873 -170.2176,-380.225625 -380.22562,-380.225625"
       inkscape:connector-curvature="0" />
  </g>
</svg>
