<?xml version="1.0" encoding="UTF-8" standalone="no"?>
<!-- Created with Inkscape (http://www.inkscape.org/) -->

<svg
   xmlns:dc="http://purl.org/dc/elements/1.1/"
   xmlns:cc="http://creativecommons.org/ns#"
   xmlns:rdf="http://www.w3.org/1999/02/22-rdf-syntax-ns#"
   xmlns:svg="http://www.w3.org/2000/svg"
   xmlns="http://www.w3.org/2000/svg"
   xmlns:sodipodi="http://sodipodi.sourceforge.net/DTD/sodipodi-0.dtd"
   xmlns:inkscape="http://www.inkscape.org/namespaces/inkscape"
   width="1000"
   height="1000"
   id="svg2"
   version="1.1"
   inkscape:version="0.48.5 r10040"
   sodipodi:docname="icon.svg"
   inkscape:export-filename="/home/jacquarg/Dropbox/MesInfos_HB/logomesinfos_carre.png"
   inkscape:export-xdpi="45"
   inkscape:export-ydpi="45">
  <defs
     id="defs4">
    <clipPath
       id="clipPath3013"
       clipPathUnits="userSpaceOnUse">
      <path
         id="path3015"
         d="m 0,595.28 841.89,0 L 841.89,0 0,0 0,595.28 z"
         inkscape:connector-curvature="0" />
    </clipPath>
  </defs>
  <sodipodi:namedview
     id="base"
     pagecolor="#ffffff"
     bordercolor="#666666"
     borderopacity="1.0"
     inkscape:pageopacity="0.0"
     inkscape:pageshadow="2"
     inkscape:zoom="0.35"
     inkscape:cx="-507.04979"
     inkscape:cy="720.44211"
     inkscape:document-units="px"
     inkscape:current-layer="layer1"
     showgrid="false"
     inkscape:window-width="1920"
     inkscape:window-height="1029"
     inkscape:window-x="0"
     inkscape:window-y="0"
     inkscape:window-maximized="1"
     fit-margin-top="0"
     fit-margin-left="0"
     fit-margin-right="0"
     fit-margin-bottom="0" />
  <metadata
     id="metadata7">
    <rdf:RDF>
      <cc:Work
         rdf:about="">
        <dc:format>image/svg+xml</dc:format>
        <dc:type
           rdf:resource="http://purl.org/dc/dcmitype/StillImage" />
        <dc:title />
      </cc:Work>
    </rdf:RDF>
  </metadata>
  <g
     inkscape:label="Calque 1"
     inkscape:groupmode="layer"
     id="layer1"
     transform="translate(115.37362,158.25757)">
    <path
       sodipodi:type="arc"
       style="fill:#ffffff;fill-rule:evenodd;stroke:none;stroke-width:1px;stroke-linecap:butt;stroke-linejoin:miter;stroke-opacity:1"
       id="path2988"
       sodipodi:cx="747.14288"
       sodipodi:cy="535.71429"
       sodipodi:rx="472.85715"
       sodipodi:ry="472.85715"
       d="m 1220,535.71429 a 472.85715,472.85715 0 1 1 -945.71426,0 472.85715,472.85715 0 1 1 945.71426,0 z"
       transform="matrix(1.0513053,0,0,1.0513053,-400.84889,-221.45685)" />
    <g
       id="g3021"
       transform="matrix(1.1043703,0,0,-1.1043703,606.18825,43.985513)">
      <path
         inkscape:connector-curvature="0"
         d="m 107.14293,78.638755 c -6.51743,0 -11.799461,-5.282027 -11.799461,-11.797939 0,-3.162231 1.284042,-6.006867 3.305063,-8.126663 L -134.60397,-279.34917 c -4.52224,2.83551 -9.48819,5.00243 -14.78238,6.39739 l 55.970333,258.99705 c 0.217298,-0.01824 0.402686,-0.130683 0.627581,-0.130683 6.517437,0 11.796425,5.2820258 11.796425,11.7994661 0,6.5174357 -5.278988,11.7979399 -11.796425,11.7979399 -6.517435,0 -11.799464,-5.2805042 -11.799464,-11.7979399 0,-4.6118993 2.71548,-8.5080781 6.573666,-10.4409711 L -153.98456,-271.95799 c -2.93733,0.50147 -5.94153,0.81754 -9.01865,0.81754 -1.52413,0 -3.02243,-0.10178 -4.5192,-0.23098 l -20.21181,155.8152 c 4.61038,1.60771 7.96712,5.86554 7.96712,11.026 0,6.517439 -5.28052,11.799465 -11.79795,11.799465 -6.51744,0 -11.79794,-5.282026 -11.79794,-11.799465 0,-6.20136 4.82463,-11.13845 10.90595,-11.62167 l 20.21788,-155.84255 c -16.85203,-2.92974 -30.97492,-13.72324 -38.48311,-28.47978 l -206.37434,93.45964 c 0.18539,0.82664 0.50601,1.6077 0.50601,2.49969 0,6.51743 -5.28202,11.79946 -11.79946,11.79946 -6.51743,0 -11.79794,-5.28203 -11.79794,-11.79946 0,-6.51745 5.28051,-11.79795 11.79794,-11.79795 3.90986,0 7.2058,2.02711 9.35295,4.95532 l 206.33939,-93.43837 c -2.46474,-6.15425 -3.8597,-12.8586 -3.8597,-19.89572 0,-7.36384 1.48918,-14.37362 4.17578,-20.75278 l -54.43709,-25.79015 c -2.15322,2.83401 -5.40054,4.78665 -9.24202,4.78665 -6.51743,0 -11.79794,-5.27898 -11.79794,-11.79794 0,-6.51743 5.28051,-11.79946 11.79794,-11.79946 6.51744,0 11.79946,5.28203 11.79946,11.79946 0,0.95582 -0.33126,1.81133 -0.54401,2.69573 l 54.48268,25.80837 c 5.03585,-9.49123 12.8434,-17.28207 22.35135,-22.31185 l -61.60945,-130.60097 c -0.88287,0.21426 -1.73079,0.53793 -2.679,0.53793 -6.51744,0 -11.79642,-5.28051 -11.79642,-11.79795 0,-6.51744 5.27898,-11.79642 11.79642,-11.79642 6.51743,0 11.79946,5.27898 11.79946,11.79642 0,3.84907 -1.96176,7.10247 -4.8064,9.25115 l 61.5441,130.58274 c 6.37308,-2.67749 13.37526,-4.16515 20.71935,-4.16515 24.36326,0 44.89722,16.28828 51.3873,38.55757 l 88.02718,-21.47911 c -0.0091,-0.14893 -0.08358,-0.27049 -0.08358,-0.41029 0,-6.51743 5.282026,-11.79642 11.799462,-11.79642 6.5174363,0 11.79642314,5.27899 11.79642314,11.79642 0,6.51744 -5.27898684,11.80098 -11.79642314,11.80098 -4.695472,0 -8.675226,-2.78993 -10.576209,-6.76969 l -88.024143,21.48673 c 0.66101,3.35673 1.02267,6.81527 1.02267,10.36803 0,5.1483 -0.76738,10.11425 -2.12435,14.81884 l 146.834538,49.51823 c 2.054459,-3.47678 5.677116,-5.91417 9.998763,-5.91417 6.517452,0 11.799478,5.28203 11.799478,11.79947 0,6.51744 -5.282026,11.79795 -11.799478,11.79795 -6.517427,0 -11.797934,-5.28051 -11.797934,-11.79795 0,-0.48323 0.21882,-0.90262 0.273524,-1.36609 l -146.842151,-49.51824 c -3.61201,9.31649 -9.74803,17.34894 -17.5875,23.29958 L 102.53559,55.980449 c 1.41776,-0.604796 2.97075,-0.937582 4.60734,-0.937582 6.51744,0 11.79793,5.280509 11.79793,11.797949 0,6.515912 -5.28049,11.797939 -11.79793,11.797939"
         style="fill:#176a3c;fill-opacity:1;fill-rule:nonzero;stroke:none"
         id="path3023" />
    </g>
    <text
       xml:space="preserve"
       style="font-size:488.78964233px;font-style:normal;font-variant:normal;font-weight:normal;font-stretch:normal;line-height:125%;letter-spacing:0px;word-spacing:0px;fill:#47a63e;fill-opacity:1;stroke:none;font-family:Monospace;-inkscape-font-specification:Monospace"
       x="-54.978291"
       y="486.17776"
       id="text3014"
       sodipodi:linespacing="125%"
       transform="scale(0.99593232,1.0040843)"><tspan
         sodipodi:role="line"
         id="tspan3016"
         x="-54.978291"
         y="486.17776"
         style="font-style:normal;font-variant:normal;font-weight:normal;font-stretch:normal;fill:#47a63e;fill-opacity:1;font-family:Monospace;-inkscape-font-specification:Monospace">{ }</tspan></text>
  </g>
</svg>
